<svg width="1024" height="1024" viewBox="0 0 1024 1024" fill="none" xmlns="http://www.w3.org/2000/svg">
<g clip-path="url(#clip0_2002_2)">
<path d="M477.53 1.18155C759.784 -17.8644 1003.99 195.611 1022.84 477.876C1041.7 760.144 828.054 1004.2 545.775 1022.87C263.768 1041.51 19.9925 828.117 1.15797 546.121C-17.6794 264.128 195.548 20.208 477.53 1.18155Z" fill="#F2F0E6"/>
<path d="M509.88 31.0048C775.363 29.8319 991.591 244.201 992.993 509.958C994.395 775.714 780.441 992.354 514.961 993.991C249.153 995.63 32.4089 781.131 31.0069 515.044C29.602 248.956 244.07 32.1749 509.88 31.0048Z" fill="#141414"/>
<path d="M572.322 96.0884C581.755 95.7242 591.196 96.486 600.449 98.3515C645.21 107.409 688.695 139.901 701.749 184.84C710.011 213.287 700.014 233.41 692.13 259.969C686.917 277.676 682.444 295.594 678.727 313.674C675.923 327.077 667.389 365.11 675.885 374.521C697.774 398.761 708.515 349.619 713.653 340.517C719.45 330.188 727.019 320.955 736.018 313.248C782.721 273.272 848.963 291.063 885.321 335.501C934.083 395.103 941.605 481.842 934.901 556.27C925.91 645.725 890.773 739.859 823.705 801.882C782.985 839.537 728.535 823.698 724.173 765.645C722.346 741.333 727.242 717.312 730.749 693.194L743.718 605.852C745.537 589.507 749.882 568.377 736.227 556.011C720.632 541.893 700.815 552.733 690.316 567.315C681.045 580.199 679.187 594.589 679.212 609.966C679.323 655.439 685.195 700.992 694.144 745.522C698.219 765.801 704.473 785.69 707.63 806.15C711.505 833.117 700.562 863.06 684.319 884.273C661.614 914.291 625.198 926.982 588.999 931.658C559.451 935.476 529.806 931.761 505.791 912.511C486.293 896.884 472.966 869.11 472.034 844.213C471.43 828.083 479.066 804.087 482.468 787.892C485.425 773.825 488.043 760.366 490.56 746.114C498.141 702.224 503.284 657.949 505.963 613.491C512.809 511.798 511.513 402.659 496.544 301.563C493.008 278.182 488.577 254.945 483.258 231.906C474.56 194.076 462.89 163.644 492.118 130.062C513.276 105.755 541.2 98.5628 572.322 96.0884Z" fill="#F2F0E6"/>
<path d="M348.002 133.71C371.231 131.216 393.997 135.068 413.275 148.875C441.246 168.906 453.836 205.569 459.276 238.089C468.301 292.045 460.92 452.812 429.972 494.424C419.352 508.704 403.957 519.832 386.003 522.203C369.376 524.4 349.463 519.304 336.258 508.823C318.242 494.521 312.11 472.071 312.113 449.996C312.113 443.731 312.986 436.611 311.943 430.457C311.389 427.213 310.938 426.888 308.426 425.075C291.487 422.981 276.657 447.733 273.221 462.846C261.594 513.997 277.097 584.821 334.018 601.289C357.69 608.573 370.647 582.235 384.84 575.554C456.151 541.984 468.975 639.493 469 682.646C469.03 731.248 464.938 765.475 451.371 805.848C421.077 895.445 357.158 912.06 278.635 862.539C159.49 785.459 80.5335 651.945 84.1171 509.212C87.7397 364.815 200.483 168.984 348.002 133.71Z" fill="#F2F0E6"/>
</g>
<defs>
<clipPath id="clip0_2002_2">
<rect width="1024" height="1024" fill="white"/>
</clipPath>
</defs>
</svg>
